<svg width="44" height="64" viewBox="0 0 44 64" fill="none" xmlns="http://www.w3.org/2000/svg">
<path d="M34.9264 15.7515C39.564 12.0403 42.007 7.3867 40.383 5.35745C38.759 3.32816 33.683 4.69167 29.0455 8.40289C24.408 12.1141 21.965 16.7677 23.5889 18.797C25.2128 20.8262 30.2888 19.4627 34.9264 15.7515Z" fill="#32EB86"/>
<path d="M19.3725 19.396C20.7683 18.0002 18.7932 13.7621 14.961 9.92991C11.1288 6.09775 6.89069 4.12265 5.49492 5.51842C4.09916 6.91419 6.07425 11.1523 9.90644 14.9845C13.7386 18.8167 17.9767 20.7918 19.3725 19.396Z" fill="#32EB86"/>
<path d="M38.1555 40.0163C40.1849 38.3926 38.8213 33.3167 35.1101 28.679C31.399 24.0415 26.7453 21.5985 24.716 23.2224C22.6867 24.8463 24.0503 29.9223 27.7615 34.5597C31.4726 39.1973 36.1263 41.6403 38.1555 40.0163Z" fill="#F3324E"/>
<path d="M4.55005 41.7654C4.55005 46.5963 6.46912 51.2294 9.88508 54.6452C13.301 58.0613 17.9341 59.9803 22.765 59.9803C32.8251 59.9803 47.8412 43.4797 38.2766 40.3676C27.7829 36.9539 22.9433 23.9038 20.7685 23.66C10.7715 22.5381 4.55005 31.7056 4.55005 41.7654Z" fill="#F3324E"/>
<path d="M0.00882691 2.74918C0.0139735 6.67665 1.06898 10.5313 3.06459 13.914C5.06018 17.2967 7.92384 20.0844 11.3589 21.9884C9.55864 22.9869 7.90681 24.2322 6.45143 25.6882C3.18653 28.9499 1.02999 33.1557 0.287007 37.7104C-0.455982 42.2651 0.252204 46.9383 2.31134 51.0684C4.37047 55.1985 7.67628 58.5766 11.761 60.7245C15.8457 62.8722 20.5023 63.6813 25.0721 63.0367C29.6419 62.3922 33.8934 60.3271 37.2248 57.1334C40.5562 53.9396 42.7987 49.7793 43.6354 45.2407C44.4721 40.7022 43.8604 36.0155 41.8866 31.8438C39.9132 27.6722 36.6775 24.2269 32.6381 21.9953C36.0778 20.094 38.9454 17.3063 40.9434 13.922C42.9415 10.5376 43.9969 6.67994 43.9999 2.74978C43.9999 2.38869 43.9289 2.03111 43.7907 1.69749C43.6528 1.36386 43.4502 1.06072 43.1949 0.805377C42.9394 0.550031 42.6362 0.347486 42.3026 0.209311C41.9692 0.0711362 41.6116 3.88932e-05 41.2505 7.82066e-05C38.3607 -0.00765274 35.4979 0.557859 32.8284 1.66389C30.1586 2.76992 27.7346 4.39448 25.697 6.44357C24.2411 7.89898 22.9959 9.55083 21.9975 11.3511C20.095 7.91466 17.3077 5.0499 13.9246 3.0541C10.5416 1.05828 6.6861 0.00410978 2.75822 0.000973144C2.39725 0.000894543 2.03979 0.0719193 1.70626 0.209987C1.37273 0.348054 1.06966 0.550462 0.814354 0.805656C0.55905 1.06085 0.35651 1.36383 0.218298 1.6973C0.0800844 2.03077 0.0089055 2.3882 0.00882691 2.74918ZM25.0338 18.9622C25.646 15.692 27.2324 12.6833 29.5849 10.3307C31.9373 7.9781 34.9461 6.39157 38.2162 5.77926C37.5995 9.04743 36.0114 12.0537 33.66 14.4055C31.3083 16.7573 28.302 18.3453 25.0338 18.9622ZM33.6636 29.5819C36.0168 31.9315 37.6039 34.9385 38.2162 38.2071C34.9497 37.5895 31.9447 36.002 29.5941 33.6512C27.2433 31.3004 25.6556 28.2959 25.038 25.0293C28.3068 25.6415 31.3137 27.2286 33.6636 29.5819ZM10.3391 29.5765C12.8056 27.0971 16.0012 25.4726 19.4578 24.941C20.1058 29.7113 22.2998 34.1378 25.7039 37.5419C29.1079 40.9461 33.534 43.1404 38.3045 43.7885C37.9026 46.3623 36.8968 48.8044 35.3695 50.9146C33.8425 53.0248 31.8373 54.7436 29.5181 55.9298C27.199 57.1163 24.632 57.7366 22.027 57.7402C19.4221 57.7435 16.8534 57.1304 14.5311 55.9502C12.2088 54.77 10.1989 53.0568 8.6661 50.9505C7.13322 48.8445 6.1209 46.4051 5.71199 43.8325C5.30305 41.26 5.50916 38.627 6.3134 36.1493C7.11766 33.6716 8.49721 31.4198 10.3391 29.5777V29.5765ZM5.79072 5.78315C9.05744 6.40066 12.0622 7.98842 14.4131 10.3392C16.7639 12.6901 18.3517 15.6949 18.9692 18.9616C15.7026 18.344 12.698 16.7562 10.3474 14.4053C7.99679 12.0545 6.40927 9.04976 5.79191 5.78315H5.79072Z" fill="#071117"/>
</svg>
